<?xml version="1.0" encoding="UTF-8"?>
<!DOCTYPE svg PUBLIC "-//W3C//DTD SVG 1.1//EN" "http://www.w3.org/Graphics/SVG/1.1/DTD/svg11.dtd">
<svg xmlns="http://www.w3.org/2000/svg" version="1.1" width="512px" height="512px" style="shape-rendering:geometricPrecision; text-rendering:geometricPrecision; image-rendering:optimizeQuality; fill-rule:evenodd; clip-rule:evenodd" xmlns:xlink="http://www.w3.org/1999/xlink">
<g><path style="opacity:0.925" fill="#000000" d="M 205.5,103.5 C 235.552,105.921 265.552,106.255 295.5,104.5C 300.43,104.14 305.097,104.974 309.5,107C 318.248,122.498 327.248,137.831 336.5,153C 339.207,154.057 342.04,154.557 345,154.5C 354.156,153.54 363.322,153.373 372.5,154C 378.87,155.436 383.037,159.269 385,165.5C 386.119,187.486 386.619,209.486 386.5,231.5C 398.193,230.558 409.86,229.558 421.5,228.5C 419.421,210.611 427.255,200.944 445,199.5C 454.126,200.775 463.292,201.608 472.5,202C 481.019,203.372 485.353,208.372 485.5,217C 484.827,224.048 483.827,231.048 482.5,238C 486.553,261.035 489.053,284.202 490,307.5C 487.921,313.247 484.088,317.414 478.5,320C 467.83,320.428 457.163,320.928 446.5,321.5C 435.704,322.69 428.204,318.357 424,308.5C 423.501,302.843 423.334,297.176 423.5,291.5C 412.138,291.275 400.805,290.609 389.5,289.5C 389.915,301.562 389.415,313.562 388,325.5C 383.995,334.255 377.161,338.588 367.5,338.5C 367.44,355.526 367.607,372.526 368,389.5C 366.946,396.791 363.113,401.958 356.5,405C 313.226,406.65 269.892,406.984 226.5,406C 220.6,404.3 216.1,400.8 213,395.5C 203.9,376.133 194.4,356.966 184.5,338C 167.167,337.667 149.833,337.333 132.5,337C 123.989,335.508 118.489,330.675 116,322.5C 115.5,306.503 115.333,290.503 115.5,274.5C 102.804,275.504 90.1375,276.837 77.5,278.5C 76.6986,286.118 76.1986,293.784 76,301.5C 74.7402,304.428 72.5735,306.261 69.5,307C 52.0539,310.519 38.2205,305.019 28,290.5C 24.2252,284.173 22.7252,277.34 23.5,270C 23.8042,259.537 25.1375,249.204 27.5,239C 19.827,203.348 34.1603,185.681 70.5,186C 72.6667,186.833 74.1667,188.333 75,190.5C 75.5003,198.505 76.0003,206.505 76.5,214.5C 89.5054,214.564 102.339,215.897 115,218.5C 116.262,201.211 116.929,183.877 117,166.5C 118.833,159.333 123.333,154.833 130.5,153C 142.7,152.196 154.867,152.363 167,153.5C 168.811,152.922 170.645,152.422 172.5,152C 179.873,138.087 187.373,124.253 195,110.5C 197.998,107.262 201.498,104.929 205.5,103.5 Z M 255.5,106.5 C 271.516,107.418 287.516,108.584 303.5,110C 305,111.5 306.5,113 308,114.5C 315.272,128.711 322.272,143.044 329,157.5C 331.365,160.869 334.532,163.036 338.5,164C 349.511,164.492 360.511,165.158 371.5,166C 372,166.5 372.5,167 373,167.5C 372.89,218.175 372.056,268.841 370.5,319.5C 359.845,319.063 352.679,323.73 349,333.5C 348.5,351.497 348.333,369.497 348.5,387.5C 309.494,387.833 270.494,387.5 231.5,386.5C 221.254,367.007 210.754,347.674 200,328.5C 196.456,323.478 191.623,320.644 185.5,320C 167.836,319.5 150.17,319.333 132.5,319.5C 131.615,269.167 131.115,218.834 131,168.5C 131.5,168 132,167.5 132.5,167C 144.819,166.073 157.152,165.406 169.5,165C 174.427,164.786 178.261,162.619 181,158.5C 188.273,143.62 195.273,128.62 202,113.5C 203.214,111.951 204.714,110.785 206.5,110C 222.998,108.99 239.331,107.823 255.5,106.5 Z M 50.5,202.5 C 53.1667,202.5 55.8333,202.5 58.5,202.5C 57.28,231.498 57.28,260.498 58.5,289.5C 48.8577,289.595 41.3577,285.595 36,277.5C 33.2587,262.584 30.7587,247.584 28.5,232.5C 28.6846,217.015 36.0179,207.015 50.5,202.5 Z M 463.5,213.5 C 467.182,213.335 470.848,213.501 474.5,214C 475.333,214.833 476.167,215.667 477,216.5C 478.862,225.573 480.362,234.74 481.5,244C 478.554,262.743 476.387,281.576 475,300.5C 473.938,301.899 472.605,302.899 471,303.5C 460.913,302.974 450.913,301.974 441,300.5C 440.595,272.813 440.262,245.147 440,217.5C 440.75,216.874 441.584,216.374 442.5,216C 449.669,215.325 456.669,214.491 463.5,213.5 Z M 206.5,217.5 C 214.829,216.492 220.496,219.826 223.5,227.5C 220.504,235.333 214.838,238.5 206.5,237C 200.975,234.081 199.142,229.581 201,223.5C 202.36,220.977 204.193,218.977 206.5,217.5 Z M 108.5,229.5 C 110.833,229.5 113.167,229.5 115.5,229.5C 115.5,240.167 115.5,250.833 115.5,261.5C 102.525,260.21 89.5251,259.21 76.5,258.5C 76.5,249.833 76.5,241.167 76.5,232.5C 87.411,232.569 98.0777,231.569 108.5,229.5 Z M 387.5,243.5 C 398.764,245.161 410.097,246.161 421.5,246.5C 421.5,255.167 421.5,263.833 421.5,272.5C 410.484,272.684 399.651,274.017 389,276.5C 387.935,265.524 387.435,254.524 387.5,243.5 Z M 294.5,294.5 C 300.884,293.891 305.217,296.558 307.5,302.5C 306.036,307.793 302.536,310.793 297,311.5C 290.16,309.483 287.827,305.149 290,298.5C 291.397,296.93 292.897,295.596 294.5,294.5 Z"/></g>
<g><path style="opacity:0.879" fill="#000000" d="M 197.5,178.5 C 216,177.004 231.167,183.337 243,197.5C 253.5,210 264,222.5 274.5,235C 273.833,235.667 273.167,235.667 272.5,235C 258.432,220.928 243.765,207.595 228.5,195C 205.929,184.194 188.095,189.36 175,210.5C 170.343,223.571 172.01,235.904 180,247.5C 214.59,274.213 249.09,301.046 283.5,328C 304.152,336.017 317.652,329.517 324,308.5C 325.166,300.501 323.5,293.167 319,286.5C 305.667,271.167 292.333,255.833 279,240.5C 277.398,238.631 276.398,236.631 276,234.5C 292.317,249.316 308.484,264.316 324.5,279.5C 333.404,289.428 336.904,301.094 335,314.5C 327.462,337.687 311.629,347.187 287.5,343C 283.271,341.885 279.271,340.219 275.5,338C 240.009,312.832 205.509,286.332 172,258.5C 160.935,244.564 157.602,228.897 162,211.5C 168.608,194.72 180.442,183.72 197.5,178.5 Z M 206.5,217.5 C 204.193,218.977 202.36,220.977 201,223.5C 199.142,229.581 200.975,234.081 206.5,237C 214.838,238.5 220.504,235.333 223.5,227.5C 220.496,219.826 214.829,216.492 206.5,217.5 Z M 294.5,294.5 C 292.897,295.596 291.397,296.93 290,298.5C 287.827,305.149 290.16,309.483 297,311.5C 302.536,310.793 306.036,307.793 307.5,302.5C 305.217,296.558 300.884,293.891 294.5,294.5 Z"/></g>
<g><path style="opacity:0.887" fill="#000000" d="M 202.5,203.5 C 215.959,202.299 223.959,208.299 226.5,221.5C 225.212,225.008 225.212,228.508 226.5,232C 221.312,249.313 210.645,253.646 194.5,245C 185.264,236.355 183.098,226.188 188,214.5C 191.562,208.988 196.396,205.322 202.5,203.5 Z M 206.5,217.5 C 204.193,218.977 202.36,220.977 201,223.5C 199.142,229.581 200.975,234.081 206.5,237C 214.838,238.5 220.504,235.333 223.5,227.5C 220.496,219.826 214.829,216.492 206.5,217.5 Z"/></g>
<g><path style="opacity:0.889" fill="#000000" d="M 288.5,281.5 C 300.532,281.209 307.866,286.876 310.5,298.5C 312.406,309.523 308.406,317.357 298.5,322C 285.728,323.864 277.228,318.697 273,306.5C 271.502,293.866 276.669,285.532 288.5,281.5 Z M 294.5,294.5 C 292.897,295.596 291.397,296.93 290,298.5C 287.827,305.149 290.16,309.483 297,311.5C 302.536,310.793 306.036,307.793 307.5,302.5C 305.217,296.558 300.884,293.891 294.5,294.5 Z"/></g>
</svg>
